<?xml version="1.0" encoding="UTF-8" standalone="no"?>
<svg width="165mm" height="120mm" viewBox="0 0 165 120" version="1.1" id="svg5" xmlns="http://www.w3.org/2000/svg" xmlns:svg="http://www.w3.org/2000/svg">
<g id="checkers">
<rect width="15" height="15" x="0" y="0"></rect>
<rect width="15" height="15" x="30" y="0"></rect>
<rect width="15" height="15" x="60" y="0"></rect>
<rect width="15" height="15" x="90" y="0"></rect>
<rect width="15" height="15" x="120" y="0"></rect>
<rect width="15" height="15" x="150" y="0"></rect>
<rect width="15" height="15" x="15" y="15"></rect>
<rect width="15" height="15" x="45" y="15"></rect>
<rect width="15" height="15" x="75" y="15"></rect>
<rect width="15" height="15" x="105" y="15"></rect>
<rect width="15" height="15" x="135" y="15"></rect>
<rect width="15" height="15" x="0" y="30"></rect>
<rect width="15" height="15" x="30" y="30"></rect>
<rect width="15" height="15" x="60" y="30"></rect>
<rect width="15" height="15" x="90" y="30"></rect>
<rect width="15" height="15" x="120" y="30"></rect>
<rect width="15" height="15" x="150" y="30"></rect>
<rect width="15" height="15" x="15" y="45"></rect>
<rect width="15" height="15" x="45" y="45"></rect>
<rect width="15" height="15" x="75" y="45"></rect>
<rect width="15" height="15" x="105" y="45"></rect>
<rect width="15" height="15" x="135" y="45"></rect>
<rect width="15" height="15" x="0" y="60"></rect>
<rect width="15" height="15" x="30" y="60"></rect>
<rect width="15" height="15" x="60" y="60"></rect>
<rect width="15" height="15" x="90" y="60"></rect>
<rect width="15" height="15" x="120" y="60"></rect>
<rect width="15" height="15" x="150" y="60"></rect>
<rect width="15" height="15" x="15" y="75"></rect>
<rect width="15" height="15" x="45" y="75"></rect>
<rect width="15" height="15" x="75" y="75"></rect>
<rect width="15" height="15" x="105" y="75"></rect>
<rect width="15" height="15" x="135" y="75"></rect>
<rect width="15" height="15" x="0" y="90"></rect>
<rect width="15" height="15" x="30" y="90"></rect>
<rect width="15" height="15" x="60" y="90"></rect>
<rect width="15" height="15" x="90" y="90"></rect>
<rect width="15" height="15" x="120" y="90"></rect>
<rect width="15" height="15" x="150" y="90"></rect>
<rect width="15" height="15" x="15" y="105"></rect>
<rect width="15" height="15" x="45" y="105"></rect>
<rect width="15" height="15" x="75" y="105"></rect>
<rect width="15" height="15" x="105" y="105"></rect>
<rect width="15" height="15" x="135" y="105"></rect>

</g>
</svg>
